<?xml version="1.0" encoding="UTF-8"?>
<svg width="20px" height="20px" viewBox="0 0 20 20" version="1.1" xmlns="http://www.w3.org/2000/svg" xmlns:xlink="http://www.w3.org/1999/xlink">
    <title>展开收起箭头</title>
    <g id="农场" stroke="none" stroke-width="1" fill="none" fill-rule="evenodd">
        <g transform="translate(-540.000000, -1137.000000)" id="编组-35备份-4">
            <g transform="translate(360.000000, 677.000000)">
                <g id="异形" transform="translate(0.000000, 434.000000)">
                    <g id="展开收起箭头" transform="translate(180.000000, 26.000000)">
                        <rect id="矩形" x="0" y="0" width="20" height="20"></rect>
                        <g id="编组-5" transform="translate(3.125000, 1.250000)">
                            <path d="M7.60648392,10.6600788 L12.1822417,15.5688572 C12.5588219,15.9728446 12.5366039,16.6056196 12.1326165,16.9821998 C11.947496,17.1547614 11.7038331,17.2507159 11.4507578,17.2507159 L2.2992422,17.2507159 C1.74695745,17.2507159 1.2992422,16.8030006 1.2992422,16.2507159 C1.2992422,15.9976406 1.39519669,15.7539777 1.56775829,15.5688572 L6.14351608,10.6600788 C6.52009624,10.2560914 7.15287128,10.2338734 7.55685869,10.6104535 C7.57397597,10.6264096 7.59052791,10.6429615 7.60648392,10.6600788 Z" id="三角形" fill="#183B56" transform="translate(6.875000, 13.563037) rotate(-180.000000) translate(-6.875000, -13.563037) "></path>
                            <path d="M7.60648392,0.784720832 L12.1822417,5.69349925 C12.5588219,6.09748666 12.5366039,6.7302617 12.1326165,7.10684186 C11.947496,7.27940345 11.7038331,7.37535794 11.4507578,7.37535794 L2.2992422,7.37535794 C1.74695745,7.37535794 1.2992422,6.92764269 1.2992422,6.37535794 C1.2992422,6.12228264 1.39519669,5.87861976 1.56775829,5.69349925 L6.14351608,0.784720832 C6.52009624,0.38073342 7.15287128,0.35851545 7.55685869,0.735095608 C7.57397597,0.75105162 7.59052791,0.767603552 7.60648392,0.784720832 Z" id="三角形备份" fill="#B8BFCC" transform="translate(6.875000, 3.687679) scale(1, -1) rotate(-180.000000) translate(-6.875000, -3.687679) "></path>
                        </g>
                    </g>
                </g>
            </g>
        </g>
    </g>
</svg>