<?xml version="1.0" encoding="UTF-8"?>
<svg width="24px" height="24px" viewBox="0 0 24 24" version="1.1" xmlns="http://www.w3.org/2000/svg" xmlns:xlink="http://www.w3.org/1999/xlink">
    <title>个人中心</title>
    <defs>
        <filter color-interpolation-filters="auto" id="filter-1">
            <feColorMatrix in="SourceGraphic" type="matrix" values="0 0 0 0 1.000000 0 0 0 0 1.000000 0 0 0 0 1.000000 0 0 0 1.000000 0"></feColorMatrix>
        </filter>
    </defs>
    <g id="页面-1" stroke="none" stroke-width="1" fill="none" fill-rule="evenodd">
        <g id="H5-萌大象" transform="translate(-335.000000, -98.000000)">
            <g id="个人中心" transform="translate(0.000000, 88.000000)" filter="url(#filter-1)">
                <g transform="translate(335.000000, 10.000000)">
                    <path d="M12,12 C9.79999999,12 7.99999999,10.2 7.99999999,8.00000001 C7.99999999,5.79999998 9.79999999,4.00000001 12,4.00000001 C14.2,4.00000001 16,5.80000001 16,8.00000001 C16,10.2 14.2,12 12,12 Z M12,6 C10.9,6 10,6.9 10,8 C10,9.09999998 10.9,10 12,10 C13.1,10 14,9.10000001 14,8 C14,6.89999998 13.1,6 12,6 Z" id="形状" fill="#000000" fill-rule="nonzero"></path>
                    <path d="M12,0 C5.4,0 0,5.4 0,12 C0,18.6 5.4,24 12,24 C18.6,24 24,18.6 24,12 C24,5.4 18.6,0 12,0 Z M6,19.5 C7,17.1 9.3,15.5 12,15.5 C14.7,15.5 17,17.1 18,19.5 C16.6,20.9 14.8,21.7 12.9,21.9 L11.3,21.9 C9.19999999,21.8 7.39999999,20.9 6,19.5 Z M19.7,18.4 C18.3,15.4 15.4,13.5 12,13.5 C8.60000002,13.5 5.7,15.4 4.30000001,18.4 C2.89999999,16.7 1.99999999,14.4 1.99999999,12 C1.99999999,6.49999999 6.49999999,1.99999999 12,1.99999999 C17.5,1.99999999 22,6.49999999 22,12 C22,14.4 21.1,16.7 19.7,18.4 Z" id="形状" fill="#000000" fill-rule="nonzero"></path>
                </g>
            </g>
        </g>
    </g>
</svg>