<?xml version="1.0" encoding="UTF-8"?>
<svg width="20px" height="20px" viewBox="0 0 20 20" version="1.1" xmlns="http://www.w3.org/2000/svg" xmlns:xlink="http://www.w3.org/1999/xlink">
    <title>Check</title>
    <defs>
        <rect id="path-1" x="0" y="0" width="20" height="20"></rect>
        <radialGradient cx="50%" cy="0%" fx="50%" fy="0%" r="100%" gradientTransform="translate(0.500000,0.000000),rotate(90.000000),scale(1.000000,2.420008),translate(-0.500000,-0.000000)" id="radialGradient-3">
            <stop stop-color="#3FB6FD" offset="0%"></stop>
            <stop stop-color="#4381FE" offset="41.0928431%"></stop>
            <stop stop-color="#DB74FF" offset="100%"></stop>
        </radialGradient>
    </defs>
    <g id="Primary" stroke="none" stroke-width="1" fill="none" fill-rule="evenodd">
        <g transform="translate(-1184.000000, -1351.000000)" id="编组-33">
            <g transform="translate(360.000000, 578.000000)">
                <g id="编组-20备份-6" transform="translate(608.000000, 488.000000)">
                    <g id="Check" transform="translate(216.000000, 285.000000)">
                        <g id="星形">
                            <mask id="mask-2" fill="white">
                                <use xlink:href="#path-1"></use>
                            </mask>
                            <g id="蒙版"></g>
                            <path d="M12.1507066,2.01414662 C12.5321176,1.85259625 12.9429017,1.86093719 13.2987206,2.00501847 C13.6545395,2.14909975 13.9553933,2.42892138 14.113923,2.80304097 L14.113923,2.80304097 L15.0027422,4.99730289 L17.1676303,5.87392815 C17.551562,6.02939309 17.8361323,6.32575924 17.9858534,6.67924206 C18.1355745,7.03272489 18.1504465,7.4433244 17.9980014,7.81996431 L17.9980014,7.81996431 L17.074914,10.0000318 L17.9858534,12.1507066 C18.1474038,12.5321176 18.1390628,12.9429017 17.9949815,13.2987206 C17.8509002,13.6545395 17.5710786,13.9553933 17.196959,14.113923 L17.196959,14.113923 L15.0026971,15.0027422 L14.1260718,17.1676303 C13.9706069,17.551562 13.6742408,17.8361323 13.3207579,17.9858534 C12.9672751,18.1355745 12.5566756,18.1504465 12.1800357,17.9980014 L12.1800357,17.9980014 L9.99996815,17.074914 L7.84929339,17.9858534 C7.46788239,18.1474038 7.05709831,18.1390628 6.70127938,17.9949815 C6.34546045,17.8509002 6.04460669,17.5710786 5.88607701,17.196959 L5.88607701,17.196959 L4.99725785,15.0026971 L2.8323697,14.1260718 C2.44843802,13.9706069 2.16386775,13.6742408 2.01414662,13.3207579 C1.8644255,12.9672751 1.84955353,12.5566756 2.00199862,12.1800357 L2.00199862,12.1800357 L2.92508605,9.99996815 L2.01414662,7.84929339 C1.85259625,7.46788239 1.86093719,7.05709831 2.00501847,6.70127938 C2.14909975,6.34546045 2.42892138,6.04460669 2.80304097,5.88607701 L2.80304097,5.88607701 L4.99730289,4.99725785 L5.87392815,2.8323697 C6.02939309,2.44843802 6.32575924,2.16386775 6.67924206,2.01414662 C7.03272489,1.8644255 7.4433244,1.84955353 7.81996431,2.00199862 L7.81996431,2.00199862 L10.0000318,2.92508605 Z" stroke="#FFFFFF" fill="url(#radialGradient-3)" mask="url(#mask-2)" transform="translate(10.000000, 10.000000) rotate(-23.000000) translate(-10.000000, -10.000000) "></path>
                        </g>
                        <polyline id="路径-4" stroke="#FFFFFF" stroke-width="1.5" stroke-linecap="round" stroke-linejoin="round" points="6.90043576 10.3908289 8.71401319 12.2354516 13.327344 7.79100717"></polyline>
                    </g>
                </g>
            </g>
        </g>
    </g>
</svg>