<?xml version="1.0" encoding="UTF-8"?>
<svg width="32px" height="32px" viewBox="0 0 32 32" version="1.1" xmlns="http://www.w3.org/2000/svg" xmlns:xlink="http://www.w3.org/1999/xlink">
    <title>中国</title>
    <g id="导航" stroke="none" stroke-width="1" fill="none" fill-rule="evenodd">
        <g transform="translate(-1617.000000, -26.000000)" fill-rule="nonzero" id="编组-16">
            <g id="中国" transform="translate(1617.000000, 26.000000)">
                <path d="M0,16 C0,24.8365099 7.16345879,32 16,32 C24.8365412,32 32,24.8365412 32,16 C32,7.16342752 24.8365412,0 16,0 C7.16345879,0 0,7.16345879 0,16 Z" id="路径" fill="#CE210A"></path>
                <path d="M10.6774573,8.13890225 L12.2201449,12.6906172 L17.2096787,12.6906172 L13.1671261,15.6486627 L14.6639612,20.1646278 L10.682493,17.481478 L6.69598908,20.1646278 L8.19282422,15.6486627 L4.18089195,12.6906172 L9.1704258,12.6906172 L10.6775199,8.13890225 L10.6774573,8.13890225 Z M26.6898118,17.2167474 L27.1887777,18.6882167 L28.8078443,18.6882167 L27.4942626,19.6503986 L27.9830634,21.1116715 L26.6899369,20.2461988 L25.4018149,21.1116715 L25.8856426,19.6503986 L24.5872928,18.6882167 L26.20123,18.6882167 L26.6900308,17.2167474 L26.6898431,17.2167474 L26.6898118,17.2167474 Z M25.6053985,10.49117 L26.7102046,11.5909093 L28.1561829,10.8781008 L27.4078123,12.3138828 L28.4922569,13.413622 L26.9546675,13.2048464 L26.1807747,14.5540529 L25.9669634,13.0316956 L24.3734503,12.7465097 L25.8243079,12.0337325 L25.6054297,10.49117 L25.6053985,10.49117 Z M20.3306787,6.6370002 L21.7970811,7.16643013 L22.8052092,5.90373646 L22.7388702,7.52790126 L24.1797503,8.06255449 L22.698241,8.52586433 L22.5708801,10.0737126 L21.7308358,8.78559057 L20.1678806,9.20304797 L21.1810444,7.94035429 L20.3306474,6.63703148 L20.3306787,6.6370002 Z M20.3306787,22.649386 L21.7970811,23.1839454 L22.8052092,21.921283 L22.7388702,23.5454165 L24.1797503,24.0799759 L22.698241,24.5432858 L22.5708801,26.0961384 L21.7308358,24.803012 L20.1678806,25.2154025 L21.1810444,23.9527401 L20.3306474,22.6494173 L20.3306787,22.649386 Z" id="形状" fill="#FFDC00"></path>
            </g>
        </g>
    </g>
</svg>