<?xml version="1.0" encoding="UTF-8"?>
<svg width="32px" height="32px" viewBox="0 0 32 32" version="1.1" xmlns="http://www.w3.org/2000/svg" xmlns:xlink="http://www.w3.org/1999/xlink">
    <title>繁体中文</title>
    <defs>
        <filter color-interpolation-filters="auto" id="filter-1">
            <feColorMatrix in="SourceGraphic" type="matrix" values="0 0 0 0 1.000000 0 0 0 0 1.000000 0 0 0 0 1.000000 0 0 0 1.000000 0"></feColorMatrix>
        </filter>
        <polygon id="path-2" points="0 18.7286822 18 18.7286822 18 0 0 0"></polygon>
    </defs>
    <g id="导航" stroke="none" stroke-width="1" fill="none" fill-rule="evenodd">
        <g transform="translate(-1753.000000, -27.000000)" id="繁体中文">
            <g transform="translate(1753.000000, 27.000000)">
                <path d="M15.9999718,0 C7.16336614,0 0,7.16342258 0,16.0000282 C0,24.8365774 7.16336614,32.0000564 15.9999718,32.0000564 C24.8366339,32.0000564 32,24.8365774 32,16.0000282 C32,7.16342258 24.8366903,0 15.9999718,0 Z" id="路径备份-2" fill="#9FAEBC" fill-rule="nonzero"></path>
                <g filter="url(#filter-1)" id="编组">
                    <g transform="translate(7.000000, 7.000000)">
                        <path d="M8.11973066,0.00504724721 L2.88858711,0.00504724721 C2.22248628,0.00504724721 1.62564364,0.375782267 1.33163583,0.972059073 L0.111016805,3.41182595 C0.0383636055,3.55667968 0,3.71873479 0,3.88101624 C0,4.45828099 0.469529791,4.92781078 1.04679455,4.92781078 C1.44536864,4.92781078 1.80399479,4.70622984 1.98279862,4.34941436 L3.10564137,2.09863634 L8.11973066,2.09863634 C8.69699542,2.09863634 9.16652521,1.62910655 9.16652521,1.05184179 C9.16652521,0.474577038 8.69699542,0.00504724721 8.11973066,0.00504724721" id="Fill-1" fill="#666666"></path>
                        <mask id="mask-3" fill="white">
                            <use xlink:href="#path-2"></use>
                        </mask>
                        <g id="Clip-4"></g>
                        <path d="M3.50817631,8.49261585 L7.07293612,8.49261585 L7.07293612,4.92785605 L3.50817631,4.92785605 L3.50817631,8.49261585 Z M7.41243705,2.83426696 L3.16867538,2.83426696 C2.20143722,2.83426696 1.41458722,3.62111696 1.41458722,4.58835512 L1.41458722,8.83211679 C1.41458722,9.79935495 2.20143722,10.5862049 3.16867538,10.5862049 L7.41243705,10.5862049 C8.37967521,10.5862049 9.16652521,9.79935495 9.16652521,8.83211679 L9.16652521,4.58835512 C9.16652521,3.62111696 8.37967521,2.83426696 7.41243705,2.83426696 L7.41243705,2.83426696 Z" id="Fill-3" fill="#666666" mask="url(#mask-3)"></path>
                        <path d="M9.53431789,5.66339614 L1.04679455,5.66339614 C0.469529791,5.66339614 0,6.13292593 0,6.71019069 C0,7.28745544 0.469529791,7.75698523 1.04679455,7.75698523 L9.53431789,7.75698523 C10.1115826,7.75698523 10.5811124,7.28745544 10.5811124,6.71019069 C10.5811124,6.13292593 10.1115826,5.66339614 9.53431789,5.66339614" id="Fill-5" fill="#666666" mask="url(#mask-3)"></path>
                        <path d="M5.29055622,4.45370905 C4.82770328,4.45370905 4.45119674,4.83021558 4.45119674,5.29306852 C4.45119674,5.75592146 4.82770328,6.132428 5.29055622,6.132428 C5.75340916,6.132428 6.12991569,5.75592146 6.12991569,5.29306852 C6.12991569,4.83021558 5.75340916,4.45370905 5.29055622,4.45370905" id="Fill-6" fill="#666666" mask="url(#mask-3)"></path>
                        <path d="M5.29055622,7.27602558 C4.82770328,7.27602558 4.45119674,7.65253211 4.45119674,8.11538505 C4.45119674,8.57823799 4.82770328,8.95474453 5.29055622,8.95474453 C5.75340916,8.95474453 6.12991569,8.57823799 6.12991569,8.11538505 C6.12991569,7.65253211 5.75340916,7.27602558 5.29055622,7.27602558" id="Fill-7" fill="#666666" mask="url(#mask-3)"></path>
                        <path d="M14.1786907,3.51322356 C13.9218016,4.04216602 13.516098,4.65824704 13.0032253,5.29673513 C12.732643,4.78148588 12.5254343,4.19030159 12.4190573,3.51322356 L14.1786907,3.51322356 Z M17.2073785,8.52391784 C17.0976065,8.49653143 15.6262095,8.11108471 14.3296554,6.96719289 C15.287727,5.85838284 16.0897414,4.64749618 16.420189,3.51322356 L16.9509421,3.51322356 C17.6064053,3.51322356 17.9977367,3.12189215 17.9977367,2.46642902 C17.9977367,1.81096588 17.6064053,1.41963447 16.9509421,1.41963447 L12.2729588,1.41963447 C12.3602105,1.19194251 12.365303,0.943201494 12.2855203,0.709285351 C12.1950999,0.444361455 12.0073559,0.230589034 11.7568042,0.107463362 C11.6116109,0.0360549992 11.456459,-4.52667911e-05 11.2955356,-4.52667911e-05 C10.893227,-4.52667911e-05 10.5332428,0.223685848 10.3565891,0.58310417 L8.94234142,3.41182595 C8.86957506,3.55667968 8.83121145,3.71873479 8.83121145,3.88101624 C8.83121145,4.45828099 9.30074124,4.92781078 9.878006,4.92781078 C10.1227862,4.92781078 10.3520625,4.84372772 10.5341481,4.69672382 C10.7627454,5.53461212 11.1133367,6.26170995 11.5337521,6.89080518 C10.8544107,7.5377808 10.0983421,8.15103265 9.31036044,8.65994455 C9.01080745,8.85346008 8.83177729,9.18209698 8.83155095,9.5387993 C8.83132462,10.1159509 9.30074124,10.5858202 9.87789283,10.5861597 L9.8783455,10.5861597 C10.0800091,10.5860465 10.2761274,10.528105 10.4455384,10.4187857 C11.1361965,9.97290783 12.0203701,9.27953375 12.9011486,8.45103831 C14.6638375,10.0194195 16.6612347,10.5458722 16.6973349,10.5549256 C16.7801731,10.575522 16.8652747,10.5860465 16.9502631,10.5861597 L16.9532055,10.5861597 C17.4339388,10.5861597 17.8514118,10.2603519 17.9684264,9.79387767 C18.1088666,9.23392746 17.7673287,8.66424489 17.2073785,8.52391784 L17.2073785,8.52391784 Z" id="Fill-8" fill="#666666" mask="url(#mask-3)"></path>
                        <path d="M9.53431789,13.805896 C8.95705313,13.805896 8.48752334,14.2754258 8.48752334,14.8526905 L8.48752334,16.6350704 L6.70514344,16.6350704 C6.12787868,16.6350704 5.65834889,17.1046002 5.65834889,17.681865 C5.65834889,18.2591297 6.12787868,18.7286595 6.70514344,18.7286595 L9.53431789,18.7286595 C10.1115826,18.7286595 10.5811124,18.2591297 10.5811124,17.681865 L10.5811124,14.8526905 C10.5811124,14.2754258 10.1115826,13.805896 9.53431789,13.805896" id="Fill-9" fill="#666666" mask="url(#mask-3)"></path>
                        <path d="M4.81047926,15.8079783 C4.63314661,15.4469756 4.27293612,15.2226787 3.87051434,15.2226787 C3.7095909,15.2226787 3.55398631,15.2590053 3.4073219,15.3312058 L0.577807956,16.7459062 C0.221331975,16.9244837 -2.26333956e-05,17.2831098 -2.26333956e-05,17.6817971 C-2.26333956e-05,17.9614327 0.108843999,18.2243196 0.30654671,18.4220223 C0.50424942,18.6198382 0.76713631,18.7287048 1.04677191,18.7287048 C1.20905336,18.7287048 1.37110847,18.6903412 1.51550953,18.6178012 L4.34717365,17.2018559 C4.85336955,16.9433826 5.06114412,16.318135 4.81047926,15.8079783" id="Fill-10" fill="#666666" mask="url(#mask-3)"></path>
                        <path d="M17.6006677,17.3517569 C17.5123974,17.0863804 17.3260114,16.8712499 17.0759124,16.7458609 L14.244701,15.3302552 C14.0996209,15.2588468 13.9443558,15.2227466 13.7835455,15.2227466 C13.3879138,15.2227466 13.0305325,15.4413852 12.8507101,15.7934476 C12.7235104,16.0425282 12.7009902,16.3261246 12.7871103,16.592067 C12.8732304,16.8581226 13.0582584,17.0749505 13.3093759,17.2032818 L16.1379845,18.6175296 C16.2827251,18.6901828 16.4450065,18.7286595 16.607288,18.7286595 C17.005862,18.7286595 17.3644882,18.5073049 17.5429525,18.1509421 C17.6683415,17.9010694 17.6887116,17.6172466 17.6006677,17.3517569" id="Fill-11" fill="#666666" mask="url(#mask-3)"></path>
                        <path d="M17.3536694,14.1119108 L15.9390822,12.6973236 C15.7413795,12.4993946 15.4782663,12.3904148 15.1982912,12.3904148 C14.9183161,12.3904148 14.6552029,12.4993946 14.4575001,12.6973236 C14.2595711,12.8950263 14.1505913,13.1581395 14.1505913,13.4381146 C14.1505913,13.5646353 14.1732247,13.689119 14.2169071,13.8059073 L9.59811011,13.8059073 C10.1983478,13.5879477 10.7934929,13.3478074 11.3758502,13.0884287 C11.6816273,12.9400668 11.8965314,12.6536411 11.9523228,12.3212697 C11.9810672,12.2241725 11.9956657,12.1241329 11.9956657,12.0235274 C11.9956657,11.4462627 11.5261359,10.9767329 10.9488712,10.9767329 L2.46134782,10.9767329 C1.88419623,10.9767329 1.41455327,11.4462627 1.41455327,12.0235274 C1.41455327,12.600679 1.88419623,13.070322 2.46134782,13.070322 L4.52630566,13.070322 C3.31383466,13.3682906 2.08914163,13.6198608 0.874180954,13.8205059 C0.370135235,13.9058338 0.00324789227,14.3386974 0.00188643411,14.8498727 C0.000418717818,15.4270243 0.469043173,15.8977989 1.0467606,15.8994964 L16.6142364,15.8994964 C16.8902507,15.8994964 17.1603802,15.7874611 17.3553669,15.5919086 C17.5525038,15.3942059 17.6609178,15.1312058 17.6605791,14.8513439 C17.6602388,14.5715951 17.5511458,14.3088214 17.3536694,14.1119108" id="Fill-12" fill="#666666" mask="url(#mask-3)"></path>
                    </g>
                </g>
            </g>
        </g>
    </g>
</svg>