<?xml version="1.0" encoding="UTF-8"?>
<svg width="40px" height="40px" viewBox="0 0 40 40" version="1.1" xmlns="http://www.w3.org/2000/svg" xmlns:xlink="http://www.w3.org/1999/xlink">
    <title>编组 12备份</title>
    <g id="农场" stroke="none" stroke-width="1" fill="none" fill-rule="evenodd">
        <g transform="translate(-272.000000, -1707.000000)" id="编组-15">
            <g transform="translate(0.000000, 1441.000000)">
                <g id="编组-12备份" transform="translate(272.000000, 266.000000)">
                    <circle id="椭圆形" stroke="#E2EEF1" cx="20" cy="20" r="19.5"></circle>
                    <g id="编组-11" transform="translate(12.000000, 11.000000)">
                        <path d="M8,0.75 C10.0020322,0.75 11.8145322,1.56148389 13.1265242,2.87347584 C14.4385161,4.18546778 15.25,5.99796778 15.25,8 C15.25,10.0020322 14.4385161,11.8145322 13.1265242,13.1265242 C11.8145322,14.4385161 10.0020322,15.25 8,15.25 C7.24662504,15.25 6.52005225,15.1352647 5.83690125,14.9220298 C5.41405542,14.7900452 4.65513631,15.0458336 3.86927431,15.4831683 C3.60564849,15.6298769 3.34379332,15.7817672 3.11645888,15.8664407 C3.09578996,15.6721299 3.26162014,15.2889128 3.26490638,15.0863912 C3.27952935,14.1852201 3.14635272,13.4013948 2.85532255,13.1083068 C1.55399873,11.7977817 0.75,9.99278174 0.75,8 C0.75,5.99796778 1.56148389,4.18546778 2.87347584,2.87347584 C4.18546778,1.56148389 5.99796778,0.75 8,0.75 Z" id="椭圆形" stroke="#183B56" stroke-width="1.5"></path>
                        <path d="M3.43780239,10.1962689 L6.05867891,6.30969304 C6.20701363,6.08972307 6.50133033,6.02390963 6.72922899,6.15974841 L9.33333494,7.71192328 L9.33333494,7.71192328 L11.9192671,6.32179914 C12.0165574,6.26949864 12.1378247,6.30597005 12.1901252,6.40326032 C12.2261077,6.47019568 12.2210467,6.55174085 12.1770635,6.61371315 L9.60368489,10.2396021 C9.45149233,10.4540413 9.15920839,10.5139514 8.93492475,10.3766794 L6.46539171,8.86520995 L6.46539171,8.86520995 L3.70463267,10.4807065 C3.60929833,10.5364927 3.48679092,10.5044326 3.43100471,10.4090982 C3.39217719,10.342745 3.39481974,10.2600092 3.43780239,10.1962689 Z" id="路径-6" fill="#183B56"></path>
                    </g>
                </g>
            </g>
        </g>
    </g>
</svg>