<?xml version="1.0" encoding="UTF-8"?>
<svg width="33px" height="33px" viewBox="0 0 33 33" version="1.1" xmlns="http://www.w3.org/2000/svg" xmlns:xlink="http://www.w3.org/1999/xlink">
    <title>英文</title>
    <g id="导航" stroke="none" stroke-width="1" fill="none" fill-rule="evenodd">
        <g transform="translate(-1786.000000, -133.000000)" fill-rule="nonzero" id="英文">
            <g transform="translate(1786.309766, 133.314477)">
                <path d="M0.433229168,19.6917269 L31.5664646,19.6917269 C31.757648,18.8825978 31.8852444,18.0597523 31.948086,17.2307205 L0.0519139968,17.2307205 C0.115337415,18.0596655 0.242823189,18.8824581 0.433229168,19.6917269 L0.433229168,19.6917269 Z M2.52096802,24.6158838 L29.479032,24.6158838 C29.9806037,23.8339572 30.4134619,23.0100281 30.7727471,22.1533459 L1.22832488,22.1533459 C1.58719031,23.0099984 2.0196391,23.8339286 2.52081489,24.6158838 L2.52096802,24.6158838 Z M7.47775899,29.5377435 L24.5230067,29.5377435 C25.6245242,28.8431322 26.63716,28.016688 27.5384593,27.0767371 L4.46154067,27.0767371 C5.36310985,28.0167022 6.37600065,28.8431447 7.47775899,29.5377435 Z M24.5248443,2.46315045 L7.47592135,2.46315045 C6.37412939,3.15725118 5.36153547,3.9837451 4.46077496,4.92415688 L27.539225,4.92415688 C26.6387325,3.9837615 25.6263938,3.15726602 24.5248443,2.46315045 L24.5248443,2.46315045 Z" id="形状" fill="#FFFFFF"></path>
                <path d="M1.22832488,22.1534991 L30.7727471,22.1534991 C31.1038652,21.3558743 31.3693193,20.5325493 31.5664646,19.6917269 L0.433229168,19.6917269 C0.63147864,20.5324069 0.89737693,21.3556801 1.22832488,22.1534991 Z M4.46154067,27.0767371 L27.5383062,27.0767371 C28.2639961,26.3217605 28.9139594,25.4974863 29.4788788,24.6157307 L2.52096802,24.6157307 C3.08647311,25.4970691 3.73639303,26.3212883 4.46154067,27.0767371 L4.46154067,27.0767371 Z M15.9999234,32.0001283 C19.1340585,32.0001283 22.0545652,31.0950537 24.5230067,29.5375904 L7.47775899,29.5375904 C9.94604733,31.0950537 12.8668603,32.0001283 15.9999234,32.0001283 Z M0.433229168,12.3084013 L31.5670771,12.3084013 C31.3694112,11.4676505 31.1037605,10.644351 30.7727471,9.84662919 L1.22725292,9.84662919 C0.896338795,10.6443583 0.630790439,11.467658 0.433229168,12.3084013 L0.433229168,12.3084013 Z M-3.69527008e-14,16.0000641 C-3.69527008e-14,16.4138563 0.0208268674,16.8235135 0.0519139968,17.2308736 L31.948086,17.2308736 C31.9791731,16.8235135 32,16.4138563 32,16.0000641 C32,15.5847406 31.9791731,15.1752365 31.948086,14.7698672 L0.0519139968,14.7698672 C0.0208268674,15.1752365 -3.69527008e-14,15.5847406 -3.69527008e-14,16.0000641 Z M4.46077496,4.92400375 C3.7351171,5.67881144 3.08539231,6.50310837 2.52096802,7.38501018 L29.4797977,7.38501018 C28.915435,6.50285819 28.2654301,5.67853129 27.539225,4.92400375 L4.46077496,4.92400375 L4.46077496,4.92400375 Z M15.9999234,3.69537331e-14 C12.8662478,3.69537331e-14 9.9443628,0.904921396 7.47592135,2.46315045 L24.5248443,2.46315045 C22.0556372,0.904921428 19.1340585,3.69537331e-14 15.9999234,3.69537331e-14 Z" id="形状" fill="#BF0A30"></path>
                <path d="M0.0519139968,14.7698672 L31.948086,14.7698672 C31.8852784,13.9406689 31.7578891,13.117633 31.5670771,12.3082482 L0.433229168,12.3082482 C0.242528448,13.1176666 0.115039302,13.9406858 0.0519139968,14.7698672 L0.0519139968,14.7698672 Z M1.22725292,9.84662919 L30.7725939,9.84662919 C30.4138506,8.9901271 29.9812346,8.16647875 29.4796445,7.38501018 L2.52096802,7.38501018 C2.01901615,8.1663942 1.58613899,8.99005209 1.22725292,9.84662919 L1.22725292,9.84662919 Z" id="形状" fill="#FFFFFF"></path>
                <path d="M15.9893568,3.69537331e-14 C7.1578524,0.00505371019 0.000153124027,7.16632211 0.000153124027,15.9986859 C0.000153124027,16.4202883 0.0208268356,16.8356118 0.0537516438,17.2487914 L15.9893568,17.2487914 L15.9893568,3.69537331e-14 Z" id="路径" fill="#002868"></path>
                <path d="M1.01500326,10.4841631 C0.979977914,10.5428168 0.949774866,10.6036146 0.915003255,10.6628809 L0.919064201,10.6628809 L1.01500326,10.4841631 L1.01500326,10.4841631 Z M0.80030244,10.999489 C0.74528795,11.1711289 0.692349168,11.3434272 0.641497683,11.5163463 L0.806581128,11.0045427 L0.800149316,10.999489 L0.80030244,10.999489 Z M1.57365248,16.3259522 L1.10045413,15.9821464 L0.62618382,16.3259522 L0.806581128,15.7691246 L0.334607867,15.4260845 L0.917453493,15.4260845 L1.10045413,14.871401 L1.2794732,15.4260845 L1.86476903,15.4260845 L1.39203008,15.7691246 L1.57365248,16.3259522 Z M3.71606184,13.9249778 L3.24240409,13.5799469 L2.76935887,13.9249778 L2.95006245,13.3683034 L2.47563899,13.0244976 L3.0612411,13.0244976 L3.24240409,12.4705797 L3.42264824,13.0244976 L4.00794404,13.0244976 L3.53413317,13.3683034 L3.71606184,13.9249778 Z M3.57777767,8.49008935 L3.75848123,9.04599811 L3.28574232,8.70035457 L2.81223769,9.04615123 L2.99263496,8.49024251 L2.52020233,8.14628355 L3.10626385,8.14628355 L3.28574232,7.59236568 L3.46613959,8.14628355 L4.05051659,8.14628355 L3.57777767,8.49008935 Z M5.9460665,16.3259522 L5.47470579,15.9821464 L4.99936352,16.3259522 L5.18083279,15.7691246 L4.70809385,15.4260845 L5.29231768,15.4260845 L5.47455267,14.871401 L5.65479682,15.4260845 L6.24009266,15.4260845 L5.76520975,15.7691246 L5.9460665,16.3259522 Z M5.97791931,10.8507872 L5.76505663,11.0045427 L5.9460665,11.5619828 L5.47470579,11.2167987 L4.99936352,11.5619828 L5.18083279,11.0045427 L4.96934835,10.8507872 L4.70809385,10.6628809 L5.29231768,10.6628809 L5.47455267,10.1054407 L5.65479682,10.6628809 L6.24009266,10.6628809 L5.97791931,10.8507872 Z M5.76505663,6.01330921 L5.9460665,6.56722708 L5.47470579,6.22571842 L4.99936352,6.56722708 L5.18083279,6.01330921 L4.70809385,5.6681251 L5.29231768,5.6681251 L5.47455267,5.11344153 L5.65479682,5.6681251 L6.24009266,5.6681251 L5.76505663,6.01330921 Z M8.0903135,14.1001733 L7.61742144,13.7549892 L7.14422309,14.1001733 L7.32477352,13.5412017 L6.85264714,13.2003056 L7.43595217,13.2003056 L7.61742144,12.641334 L7.79720618,13.2003056 L8.38296142,13.2003056 L7.90899736,13.5412017 L8.0903135,14.1001733 Z M7.95447954,8.66436599 L8.13457057,9.21904957 L7.66075966,8.87447806 L7.18786759,9.21904957 L7.36903059,8.66436599 L6.89552596,8.32056016 L7.47913724,8.32056016 L7.66075966,7.76465144 L7.84085069,8.32056016 L8.42584021,8.32056016 L7.95447954,8.66436599 Z M7.99812405,3.72826396 L8.17775564,4.28294757 L7.70608869,3.94128575 L7.23181838,4.28279441 L7.41160313,3.72826396 L6.94054871,3.38445816 L7.52278174,3.38445816 L7.70608869,2.82839628 L7.88403576,3.384305 L8.46933159,3.384305 L7.99812405,3.72826396 Z M10.3206244,16.3259522 L9.84926374,15.9821464 L9.37529971,16.3259522 L9.55585014,15.7691246 L9.08341747,15.4260845 L9.66779447,15.4260845 L9.84926374,14.871401 L10.0279765,15.4260845 L10.612966,15.4260845 L10.1408397,15.7691246 L10.3206244,16.3259522 Z M10.3524773,10.8507872 L10.1408397,11.0045427 L10.3206244,11.5619828 L9.84926374,11.2167987 L9.37529971,11.5619828 L9.55585014,11.0045427 L9.3443657,10.8507872 L9.08341747,10.6628809 L9.66779447,10.6628809 L9.84926374,10.1054407 L10.0279765,10.6628809 L10.612966,10.6628809 L10.3524773,10.8507872 Z M10.1408397,6.01330921 L10.3206244,6.56722708 L9.84926374,6.22571842 L9.37529971,6.56722708 L9.55585014,6.01330921 L9.08341747,5.6681251 L9.66779447,5.6681251 L9.84926374,5.11344153 L10.0279765,5.6681251 L10.612966,5.6681251 L10.1408397,6.01330921 Z M12.4664028,14.1001733 L11.9913668,13.7549892 L11.5200061,14.1001733 L11.7004034,13.5412017 L11.2258268,13.2003056 L11.8118884,13.2003056 L11.9913668,12.641334 L12.1732955,13.2003056 L12.7575193,13.2003056 L12.2840147,13.5412017 L12.4664028,14.1001733 Z M12.3282718,8.66436599 L12.5088222,9.21904957 L12.0356239,8.87447806 L11.5624255,9.21904957 L11.742976,8.66436599 L11.2705433,8.32056016 L11.8562985,8.32056016 L12.0356239,7.76465144 L12.2161743,8.32056016 L12.7996325,8.32056016 L12.3282718,8.66436599 Z M12.372682,3.72826396 L12.5524667,4.28294757 L12.081106,3.94128575 L11.6063763,4.28279441 L11.7870799,3.72826396 L11.3151066,3.38445816 L11.8973397,3.38445816 L12.081106,2.82839628 L12.2593594,3.384305 L12.8440427,3.384305 L12.372682,3.72826396 Z M14.6976326,16.3259522 L14.2248936,15.9821464 L13.7500108,16.3259522 L13.93148,15.7691246 L13.4582817,15.4260845 L14.0415867,15.4260845 L14.2248936,14.871401 L14.4033001,15.4260845 L14.987524,15.4260845 L14.515857,15.7691246 L14.6976326,16.3259522 Z M14.7278009,10.8507872 L14.515857,11.0045427 L14.6977857,11.5619828 L14.2248936,11.2167987 L13.7500108,11.5619828 L13.93148,11.0045427 L13.7203019,10.8507872 L13.4584348,10.6628809 L14.0415867,10.6628809 L14.2248936,10.1054407 L14.4033001,10.6628809 L14.987524,10.6628809 L14.7278009,10.8507872 Z M14.515857,6.01330921 L14.6977857,6.56722708 L14.2248936,6.22571842 L13.7500108,6.56722708 L13.93148,6.01330921 L13.4582817,5.6681251 L14.0415867,5.6681251 L14.2248936,5.11344153 L14.4033001,5.6681251 L14.987524,5.6681251 L14.515857,6.01330921 Z M14.515857,1.13203235 L14.6977857,1.68748166 L14.2248936,1.34444156 L13.7500108,1.68748166 L13.93148,1.13218548 L13.4582817,0.787613973 L14.0415867,0.787613973 L14.2248936,0.233083499 L14.4033001,0.787460813 L14.987524,0.787460813 L14.515857,1.13203235 Z M9.84926374,1.34444156 L10.3206244,1.68824736 L10.1408397,1.13295122 L10.2062299,1.08578319 C9.95826099,1.18139589 9.71289607,1.28362988 9.47039877,1.39237529 L9.37545283,1.68824736 L9.84926374,1.34444156 L9.84926374,1.34444156 Z" id="形状" fill="#FFFFFF"></path>
                <path d="M9.84926374,5.11344153 L9.66779447,5.6681251 L9.08341747,5.6681251 L9.55585014,6.01330921 L9.37529971,6.56722708 L9.84926374,6.22571842 L10.3206244,6.56722708 L10.1408397,6.01330921 L10.612966,5.6681251 L10.0279765,5.6681251 L9.84926374,5.11344153 Z M9.84926374,10.1054407 L9.66779447,10.6628809 L9.08341747,10.6628809 L9.3443657,10.8507872 L9.55569698,11.0045427 L9.37529971,11.5619828 L9.84926374,11.2167987 L10.3206244,11.5619828 L10.1408397,11.0045427 L10.3524773,10.8507872 L10.612966,10.6628809 L10.0279765,10.6628809 L9.84926374,10.1054407 Z M10.0279765,15.4260845 L9.84926374,14.871401 L9.66779447,15.4260845 L9.08341747,15.4260845 L9.55585014,15.7691246 L9.37529971,16.3259522 L9.84926374,15.9821464 L10.3206244,16.3259522 L10.1408397,15.7691246 L10.612966,15.4260845 L10.0279765,15.4260845 Z M5.47470579,5.11344153 L5.29247084,5.6681251 L4.70809385,5.6681251 L5.18083279,6.01330921 L4.99936352,6.56722708 L5.47470579,6.22571842 L5.9460665,6.56722708 L5.76520975,6.01330921 L6.24009266,5.6681251 L5.65479682,5.6681251 L5.47470579,5.11344153 Z M5.47470579,10.1054407 L5.29247084,10.6628809 L4.70809385,10.6628809 L4.96934835,10.8507872 L5.18083279,11.0045427 L4.99936352,11.5619828 L5.47470579,11.2167987 L5.9460665,11.5619828 L5.76520975,11.0045427 L5.97791931,10.8507872 L6.24009266,10.6628809 L5.65479682,10.6628809 L5.47470579,10.1054407 Z M5.65479682,15.4260845 L5.47470579,14.871401 L5.29247084,15.4260845 L4.70809385,15.4260845 L5.18083279,15.7691246 L4.99936352,16.3259522 L5.47470579,15.9821464 L5.9460665,16.3259522 L5.76520975,15.7691246 L6.24009266,15.4260845 L5.65479682,15.4260845 Z M0.643847388,11.6163463 L0.652531388,11.6119838 C0.666522288,11.5817825 0.680030788,11.5505744 0.692091988,11.5163463 L0.643847388,11.6163463 L0.643847388,11.6163463 Z M1.10045413,10.1054407 L0.975339899,10.4841631 C1.01791244,10.368387 1.06676367,10.2539893 1.11224582,10.141123 L1.10045413,10.1054407 L1.10045413,10.1054407 Z" id="形状" fill="#FFFFFF"></path>
                <path d="M1.57365248,11.5619828 L1.39203008,11.0045427 L1.6033614,10.8507872 L1.86476903,10.6628809 L1.27962632,10.6628809 L1.11239895,10.141123 C1.06691676,10.2539893 1.01806557,10.368387 0.975493023,10.4841631 L0.917606617,10.6628809 L0.915156411,10.6628809 C0.875340355,10.7757472 0.837821413,10.8873883 0.80030244,10.999489 L0.806734252,11.0045427 L0.641650839,11.5163463 C0.637951331,11.5310304 0.633763212,11.545587 0.629093463,11.559992 L1.10060729,11.2167987 L1.57380564,11.5619828 L1.57365248,11.5619828 Z M1.2794732,15.4260845 L1.10030101,14.871401 L0.917453493,15.4260845 L0.334607867,15.4260845 L0.806581128,15.7691246 L0.62618382,16.3259522 L1.10045413,15.9821464 L1.57365248,16.3259522 L1.39203008,15.7691246 L1.86476903,15.4260845 L1.2794732,15.4260845 Z M12.0356239,7.76465144 L11.8562985,8.32056016 L11.2703901,8.32056016 L11.7428228,8.66436599 L11.5622724,9.21904957 L12.0354707,8.87447806 L12.5086691,9.21904957 L12.3281186,8.66436599 L12.7996325,8.32056016 L12.2160212,8.32056016 L12.0356239,7.76465144 Z M12.1732955,13.2003056 L11.9913668,12.641334 L11.8118884,13.2003056 L11.22598,13.2003056 L11.7007097,13.5412017 L11.5200061,14.1001733 L11.9915199,13.7549892 L12.4664028,14.1001733 L12.2841679,13.5412017 L12.7576725,13.2003056 L12.1732955,13.2003056 Z M7.66075966,7.76465144 L7.47913724,8.32056016 L6.89567908,8.32056016 L7.36903059,8.66436599 L7.18786759,9.21904957 L7.66075966,8.87447806 L8.13457057,9.21904957 L7.95447954,8.66436599 L8.42584021,8.32056016 L7.84085069,8.32056016 L7.66075966,7.76465144 Z M7.79720618,13.2003056 L7.61742144,12.641334 L7.43595217,13.2003056 L6.85264714,13.2003056 L7.32477352,13.5412017 L7.14422309,14.1001733 L7.61742144,13.7549892 L8.0903135,14.1001733 L7.90899736,13.5412017 L8.38296142,13.2003056 L7.79720618,13.2003056 Z M3.28574232,7.59221252 L3.10626385,8.14613039 L2.52020233,8.14613039 L2.99263496,8.49008935 L2.81223769,9.04599811 L3.28574232,8.70035457 L3.75848123,9.04615123 L3.57777767,8.49024251 L4.05051659,8.14628355 L3.46613959,8.14628355 L3.28574232,7.59221252 Z M3.42264824,13.0244976 L3.24240409,12.4705797 L3.0612411,13.0244976 L2.47563899,13.0244976 L2.95006245,13.3683034 L2.76935887,13.9249778 L3.24255721,13.5799469 L3.71606184,13.9249778 L3.53413317,13.3683034 L4.00794404,13.0244976 L3.42264824,13.0244976 Z M14.2248936,5.11344153 L14.0415867,5.6681251 L13.4584348,5.6681251 L13.9316332,6.01330921 L13.7500108,6.56722708 L14.2248936,6.22571842 L14.6977857,6.56722708 L14.515857,6.01330921 L14.987524,5.6681251 L14.4033001,5.6681251 L14.2248936,5.11344153 Z M7.70608869,2.82839628 L7.52278174,3.384305 L6.94054871,3.384305 L7.41160313,3.72826396 L7.23181838,4.28294757 L7.70608869,3.94128575 L8.17775564,4.28279441 L7.99812405,3.72826396 L8.46933159,3.38445816 L7.88403576,3.38445816 L7.70608869,2.82839628 Z M12.081106,2.82839628 L11.8973397,3.384305 L11.3151066,3.384305 L11.7869268,3.72826396 L11.6065294,4.28294757 L12.081106,3.94128575 L12.5524667,4.28279441 L12.372682,3.72826396 L12.8440427,3.38445816 L12.2593594,3.38445816 L12.081106,2.82839628 Z M14.2248936,0.233083499 L14.0415867,0.787460813 L13.4584348,0.787460813 L13.9316332,1.13203235 L13.7500108,1.6873285 L14.2248936,1.3442884 L14.6977857,1.6873285 L14.515857,1.13203235 L14.987524,0.787460813 L14.4033001,0.787460813 L14.2248936,0.233083499 Z M14.2248936,10.1054407 L14.0415867,10.6628809 L13.4584348,10.6628809 L13.7203019,10.8507872 L13.9316332,11.0045427 L13.7500108,11.5619828 L14.2248936,11.2167987 L14.6977857,11.5619828 L14.515857,11.0045427 L14.7278009,10.8507872 L14.987524,10.6628809 L14.4033001,10.6628809 L14.2248936,10.1054407 Z M14.4033001,15.4260845 L14.2248936,14.871401 L14.0415867,15.4260845 L13.4584348,15.4260845 L13.9316332,15.7691246 L13.7500108,16.3259522 L14.2248936,15.9821464 L14.6977857,16.3259522 L14.515857,15.7691246 L14.987524,15.4260845 L14.4033001,15.4260845 Z" id="形状" fill="#FFFFFF"></path>
            </g>
        </g>
    </g>
</svg>