<?xml version="1.0" encoding="UTF-8"?>
<svg width="32px" height="32px" viewBox="0 0 32 32" version="1.1" xmlns="http://www.w3.org/2000/svg" xmlns:xlink="http://www.w3.org/1999/xlink">
    <title>EN</title>
    <g id="导航" stroke="none" stroke-width="1" fill="none" fill-rule="evenodd">
        <g transform="translate(-1711.000000, -27.000000)" id="EN">
            <g transform="translate(1711.000000, 27.000000)" id="编组-31">
                <path d="M15.9999718,0 C7.16336614,0 0,7.16342258 0,16.0000282 C0,24.8365774 7.16336614,32.0000564 15.9999718,32.0000564 C24.8366339,32.0000564 32,24.8365774 32,16.0000282 C32,7.16342258 24.8366903,0 15.9999718,0 Z" id="路径" fill="#9FAEBC" fill-rule="nonzero"></path>
                <g id="编组" transform="translate(5.000000, 9.000000)" fill="#FFFFFF">
                    <path d="M1.15784395,13.8941275 C0.519100039,13.8941275 0,13.3750274 0,12.7362835 L0,1.15784395 C0,0.519100039 0.519100039,0 1.15784395,0 L9.5753695,0 C10.2141134,0 10.7332135,0.519100039 10.7332135,1.15784395 L10.7332135,1.5129161 C10.7332135,2.15166001 10.2141134,2.67076005 9.5753695,2.67076005 L3.20336827,2.67076005 L3.20336827,5.27976843 L9.05144511,5.27976843 C9.69018903,5.27976843 10.2092891,5.79886847 10.2092891,6.43761239 L10.2092891,6.78496557 C10.2092891,7.42370949 9.69018903,7.94280953 9.05144511,7.94280953 L3.20336827,7.94280953 L3.20336827,11.2310864 L9.84167361,11.2310864 C10.4804175,11.2310864 10.9995176,11.7501864 10.9995176,12.3889303 L10.9995176,12.7362835 C10.9995176,13.3750274 10.4804175,13.8941275 9.84167361,13.8941275 L1.15784395,13.8941275 Z" id="Fill-1"></path>
                    <path d="M19.9699136,13.8941275 C19.3311697,13.8941275 18.8120696,13.3750274 18.8120696,12.7362835 L18.8120696,8.40498224 C18.8120696,7.04162098 18.7213719,6.50515328 18.6451471,6.29481163 C18.5525196,6.0227183 18.3720889,5.78439542 18.1337661,5.6213324 C17.8935134,5.46405859 17.6098417,5.38011491 17.3165212,5.38011491 C16.820578,5.38107978 16.4298057,5.49782904 16.0737687,5.7400114 C15.7244858,5.97543967 15.4832683,6.28998728 15.3568703,6.67593527 C15.2198588,7.08504013 15.151353,7.8665848 15.151353,9.000307 L15.151353,12.7362835 C15.151353,13.3750274 14.632253,13.8941275 13.9935091,13.8941275 L13.1222315,13.8941275 C12.4834876,13.8941275 11.9643875,13.3750274 11.9643875,12.7362835 L11.9643875,4.28691724 C11.9643875,3.64817333 12.4834876,3.12907329 13.1222315,3.12907329 L13.7947458,3.12907329 C14.4334898,3.12907329 14.9525898,3.64817333 14.9525898,4.28691724 L14.9525898,4.32744178 C15.8528135,3.37608 16.9595193,2.89460989 18.2476207,2.89460989 C18.8873295,2.89460989 19.4816894,3.00942941 20.0171922,3.23520898 C20.5594491,3.46870751 20.976273,3.77071181 21.2560853,4.13253805 C21.5358975,4.49243454 21.7317662,4.90539889 21.8388667,5.35888777 C21.9459673,5.80658743 22,6.44243674 22,7.25099776 L22,12.7362835 C22,13.3750274 21.4799351,13.8941275 20.8411912,13.8941275 L19.9699136,13.8941275 Z" id="Fill-3"></path>
                </g>
            </g>
        </g>
    </g>
</svg>