<?xml version="1.0" encoding="UTF-8"?>
<svg width="60px" height="60px" viewBox="0 0 60 60" version="1.1" xmlns="http://www.w3.org/2000/svg" xmlns:xlink="http://www.w3.org/1999/xlink">
    <title>失败</title>
    <defs>
        <circle id="path-1" cx="30" cy="30" r="30"></circle>
    </defs>
    <g id="农场" stroke="none" stroke-width="1" fill="none" fill-rule="evenodd">
        <g id="弹窗" transform="translate(-88.000000, -278.000000)">
            <g id="弹窗备份-18" transform="translate(58.000000, 259.000000)">
                <g id="失败" transform="translate(30.000000, 19.000000)">
                    <mask id="mask-2" fill="white">
                        <use xlink:href="#path-1"></use>
                    </mask>
                    <use id="蒙版" fill="#FF515B" transform="translate(30.000000, 30.000000) rotate(-360.000000) translate(-30.000000, -30.000000) " xlink:href="#path-1"></use>
                    <rect id="矩形" fill-opacity="0.1" fill="#000000" style="mix-blend-mode: multiply;" mask="url(#mask-2)" transform="translate(42.106602, 41.964466) rotate(-315.000000) translate(-42.106602, -41.964466) " x="25.6066017" y="23.4644661" width="33" height="37"></rect>
                    <path d="M30.3535534,11.8535534 C33.1149771,11.8535534 35.3535534,14.0921296 35.3535534,16.8535534 L35.3535534,25.3535534 L43.8535534,25.3535534 C46.6149771,25.3535534 48.8535534,27.5921296 48.8535534,30.3535534 C48.8535534,33.1149771 46.6149771,35.3535534 43.8535534,35.3535534 L35.3525534,35.3535534 L35.3535534,43.8535534 C35.3535534,46.6149771 33.1149771,48.8535534 30.3535534,48.8535534 C27.5921296,48.8535534 25.3535534,46.6149771 25.3535534,43.8535534 L25.3525534,35.3535534 L16.8535534,35.3535534 C14.0921296,35.3535534 11.8535534,33.1149771 11.8535534,30.3535534 C11.8535534,27.5921296 14.0921296,25.3535534 16.8535534,25.3535534 L25.3535534,25.3535534 L25.3535534,16.8535534 C25.3535534,14.0921296 27.5921296,11.8535534 30.3535534,11.8535534 Z" id="形状结合" fill="#FFFFFF" mask="url(#mask-2)" transform="translate(30.353553, 30.353553) rotate(-315.000000) translate(-30.353553, -30.353553) "></path>
                </g>
            </g>
        </g>
    </g>
</svg>