<?xml version="1.0" encoding="UTF-8"?>
<svg width="30px" height="30px" viewBox="0 0 30 30" version="1.1" xmlns="http://www.w3.org/2000/svg" xmlns:xlink="http://www.w3.org/1999/xlink">
    <title>HECO</title>
    <g id="导航" stroke="none" stroke-width="1" fill="none" fill-rule="evenodd">
        <g transform="translate(-1224.000000, -89.000000)" fill-rule="nonzero" id="编组">
            <g id="编组-22备份" transform="translate(1204.000000, 75.000000)">
                <g id="编组-14" transform="translate(0.000000, 6.000000)">
                    <g id="HECO" transform="translate(20.000000, 8.000000)">
                        <path d="M15,0 C6.73956263,0.0298210786 0.0298210786,6.73956263 0,15 C0.0298210786,23.2902585 6.73956263,30 15,30 C23.2902585,29.9701789 30,23.2604374 30,15 C30,6.73956263 23.2902585,0.0298210786 15,0 Z" id="路径" fill="#01943F"></path>
                        <path d="M11.3099404,10.3228628 L11.3397614,10.3228628 C11.4590457,10.2632207 11.57833,10.2035785 11.6976143,10.1737575 L11.6976143,7.78807157 C11.6976143,7.37057653 11.3397614,7.01272367 10.9222664,7.01272367 L7.70159047,7.01272367 L7.70159047,13.8119284 C8.47693839,12.2910537 9.75924454,11.0683897 11.3099404,10.3228628 Z" id="路径" fill="#FFFFFF"></path>
                        <path d="M14.599503,14.4805169 L15.3152088,14.4805169 C16.3589463,14.4805169 17.1939364,13.6455269 17.2237575,12.6017893 L17.2237575,10.5739563 C16.8360835,10.484493 15.0468191,10.454672 14.6293241,10.454672 C10.9911531,10.454672 7.94940359,13.287674 7.71083499,16.9258449 C7.68101391,17.1047714 7.68101391,17.2538768 7.68101391,17.4029821 C7.68101391,17.5520875 7.68101391,17.7310139 7.71083499,17.8801193 L7.71083499,22.204175 C7.71083499,22.62167 8.06868787,22.9795229 8.48618292,22.9795229 L11.7068589,22.9795229 L11.7068589,17.373161 C11.7068589,15.7628231 13.0189861,14.4805169 14.599503,14.4805169 L14.599503,14.4805169 Z M18.699006,19.689662 L18.6691849,19.689662 C18.5499006,19.7493042 18.4306163,19.8089463 18.311332,19.8387674 L18.311332,22.2244533 C18.311332,22.6419483 18.6691849,22.9998012 19.0866799,22.9998012 L22.3073559,22.9998012 L22.3073559,16.2005964 C21.5320079,17.7214712 20.2497018,18.9441352 18.699006,19.689662 L18.699006,19.689662 Z" id="形状" fill="#FFFFFF"></path>
                        <path d="M22.3335984,12.1121272 L22.3335984,7.78807157 C22.3335984,7.37057653 21.9757455,7.01272367 21.5284294,7.01272367 L18.3077535,7.01272367 L18.3077535,12.6489066 C18.3077535,14.2592445 16.9956262,15.5415507 15.4151093,15.5415507 L14.6994036,15.5415507 C13.655666,15.5415507 12.8206759,16.3765408 12.7908549,17.4202783 L12.7908549,19.4481114 C13.1785288,19.5077535 14.9677932,19.5673956 15.3852883,19.5673956 L15.5343936,19.5673956 C16.518489,19.5375746 17.4727634,19.328827 18.3375746,18.911332 L18.3673956,18.911332 C20.6636183,17.8377734 22.184493,15.6011929 22.3634195,13.0962227 C22.3634195,12.9471173 22.3932406,12.7681909 22.3932406,12.6190855 C22.3932406,12.4699801 22.3335984,12.2910537 22.3335984,12.1121272 L22.3335984,12.1121272 Z" id="路径" fill="#FFFFFF"></path>
                    </g>
                </g>
            </g>
        </g>
    </g>
</svg>