<?xml version="1.0" encoding="UTF-8"?>
<svg width="16px" height="16px" viewBox="0 0 16 16" version="1.1" xmlns="http://www.w3.org/2000/svg" xmlns:xlink="http://www.w3.org/1999/xlink">
    <title>结束</title>
    <defs>
        <rect id="path-1" x="0" y="0" width="16" height="16"></rect>
    </defs>
    <g id="Primary" stroke="none" stroke-width="1" fill="none" fill-rule="evenodd">
        <g transform="translate(-985.000000, -1606.000000)" id="编组-24">
            <g transform="translate(360.000000, 1502.000000)">
                <g id="编组-20备份-10" transform="translate(608.000000, 86.000000)">
                    <g id="编组-23" transform="translate(12.000000, 12.000000)">
                        <g id="编组-21" transform="translate(5.000000, 5.000000)">
                            <g id="结束" transform="translate(0.000000, 1.000000)">
                                <mask id="mask-2" fill="white">
                                    <use xlink:href="#path-1"></use>
                                </mask>
                                <g id="蒙版"></g>
                                <g id="编组" mask="url(#mask-2)" fill="#FFFFFF" fill-rule="nonzero">
                                    <g transform="translate(1.000000, 0.000000)" id="形状">
                                        <path d="M6.91457286,14.5125628 C8.40201005,14.5125628 9.64824121,13.9899497 10.6934673,12.9447236 C11.7386935,11.8994975 12.2613065,10.6532663 12.2613065,9.16582915 C12.2613065,7.67839196 11.7386935,6.4321608 10.6934673,5.38693467 C9.64824121,4.34170854 8.40201005,3.81909548 6.91457286,3.81909548 C5.42713568,3.81909548 4.18090452,4.34170854 3.13567839,5.38693467 C2.09045226,6.4321608 1.5678392,7.67839196 1.5678392,9.16582915 C1.5678392,10.6532663 2.09045226,11.8994975 3.13567839,12.9447236 C4.18090452,13.9899497 5.42713568,14.5125628 6.91457286,14.5125628 Z M12.2613065,4.90452261 C13.2663317,6.15075377 13.7487437,7.59798995 13.7487437,9.16582915 C13.7487437,11.0552764 13.0653266,12.6633166 11.7386935,13.9899497 C10.4120603,15.3165829 8.8040201,16 6.87437186,16 C4.94472362,16 3.33668342,15.3165829 2.01005025,13.9899497 C0.683417085,12.6633166 0,11.0150754 0,9.16582915 C0,7.31658291 0.683417085,5.66834171 2.01005025,4.34170854 C3.33668342,3.01507538 4.94472362,2.33165829 6.87437186,2.33165829 C8.40201005,2.33165829 9.84924623,2.85427136 11.1758794,3.85929648 L12.2613065,2.73366834 C12.6231156,3.05527638 12.9849246,3.41708543 13.3467337,3.81909548 L12.2613065,4.90452261 L12.2613065,4.90452261 Z M6.91457286,5.38693467 C7.31658291,5.38693467 7.67839196,5.70854271 7.67839196,6.15075377 L7.67839196,9.20603015 C7.67839196,9.6080402 7.35678392,9.96984925 6.91457286,9.96984925 C6.51256281,9.96984925 6.15075377,9.64824121 6.15075377,9.20603015 L6.15075377,6.15075377 C6.15075377,5.70854271 6.51256281,5.38693467 6.91457286,5.38693467 Z M9.20603015,0 L9.20603015,1.52763819 L4.62311558,1.52763819 L4.62311558,0 L9.20603015,0 Z"></path>
                                    </g>
                                </g>
                            </g>
                        </g>
                    </g>
                </g>
            </g>
        </g>
    </g>
</svg>