<?xml version="1.0" encoding="UTF-8"?>
<svg width="16px" height="16px" viewBox="0 0 16 16" version="1.1" xmlns="http://www.w3.org/2000/svg" xmlns:xlink="http://www.w3.org/1999/xlink">
    <title>问号</title>
    <g id="农场" stroke="none" stroke-width="1" fill="none" fill-rule="evenodd">
        <g transform="translate(-470.000000, -837.000000)" id="编组-35备份-4">
            <g transform="translate(360.000000, 677.000000)">
                <g id="编组-31" transform="translate(30.000000, 150.000000)">
                    <g id="问号" transform="translate(80.000000, 10.000000)">
                        <circle id="椭圆形" stroke="#6F7D95" stroke-width="2" cx="8" cy="8" r="7"></circle>
                        <path d="M8.03372706,11.2444752 C8.31404232,11.2619575 8.54139547,11.3565149 8.71630169,11.52951 C8.89167321,11.7020398 8.97911801,11.9223136 8.97911801,12.1898661 C8.97911801,12.4574186 8.89119128,12.6819467 8.71630169,12.8634503 C8.54141209,13.0445053 8.31404232,13.1352571 8.03372706,13.1352571 C7.66596701,13.1352571 7.39464219,12.9797443 7.21975259,12.6691839 C7.04484637,12.3581417 7.04484637,12.0475814 7.21975259,11.7365391 C7.39464219,11.4259954 7.66596701,11.2619741 8.03372706,11.2444752 Z M8.09250405,3.30024267 C10.258986,3.31957229 11.2579301,4.65049591 11.2988949,6.00659539 C11.3264175,6.91183507 10.8427653,7.78195618 9.52063158,8.56306635 C9.29577807,8.6959858 9.14529934,8.83944493 9.04809544,8.99227038 C8.9145996,9.20129378 8.88238357,9.41795433 8.90638606,9.66154048 C8.90346294,9.6340179 8.92688904,9.82725235 8.92688904,9.89458695 C8.92841307,10.2093876 8.76134342,10.5009297 8.4889692,10.6587717 C8.21659498,10.8166136 7.88057554,10.8166136 7.60820132,10.6587717 C7.3358271,10.5009297 7.16875745,10.2093876 7.17028148,9.89458695 L7.17028148,9.89458695 L7.17005092,9.93183387 C7.16942842,9.93712858 7.16745717,9.9192811 7.16149154,9.86412067 C7.09592728,9.25458919 7.18022419,8.65500042 7.56609611,8.04896844 C7.81435514,7.65900004 8.16801103,7.32173007 8.62768134,7.05062133 C9.09258033,6.77601309 9.3554961,6.52304003 9.4767025,6.3052267 C9.52390699,6.23193554 9.54723017,6.14581307 9.54346071,6.05871743 C9.52822756,5.5522155 9.16343502,5.06623714 8.07609755,5.05627385 C7.08479062,5.0475045 6.668473,5.3537318 6.54022643,6.09735609 C6.44822353,6.56514765 5.99983931,6.87412705 5.52994751,6.79353441 C5.06005571,6.71294177 4.74025704,6.27220888 4.80939169,5.80049511 C5.09101953,4.15805376 6.28140713,3.28325978 8.09250405,3.30024267 Z" id="形状结合" fill="#6F7D95" fill-rule="nonzero"></path>
                    </g>
                </g>
            </g>
        </g>
    </g>
</svg>